<svg width="103" height="19" viewBox="0 0 103 19" fill="none" xmlns="http://www.w3.org/2000/svg">
<path d="M36.4844 0.527344C40.2666 0.48511 43.2566 3.56022 43.1582 7.39453L43.0918 9.98633L43.0967 9.98828L29.0654 10.1445L28.9482 14.7891L31.4219 14.7607L31.501 11.6963L43.0596 11.5684L42.9746 14.9062C42.923 16.8814 41.3039 18.5023 39.3564 18.5234L25.2568 18.6816C23.3081 18.7026 21.7666 17.1181 21.8154 15.1416L22.002 7.63184C22.0972 3.79601 25.2425 0.653563 29.0234 0.611328L36.4844 0.527344ZM91.002 7.38379L85.5205 7.44434L85.6104 3.93164L79.9932 3.99414L79.8848 8.18164L85.7598 8.11719L85.6807 11.46L79.8662 11.4658L79.8613 11.7646L79.6973 18.3486L71.3301 18.4414L71.4941 11.8584L73.7559 11.833L73.8779 6.94629L71.6162 6.9707L71.7803 0.386719L74.043 0.362305L91.2275 0.166016L91.002 7.38379ZM70.6631 6.61035L66.8809 6.65234L66.7588 11.5762L70.542 11.5898L70.3818 17.9873L61.1045 18.0908L61.2598 11.7295L63 11.71L63.1318 6.60156L61.7568 6.61523L59.2695 14.3525L54.2295 14.4082L52.4092 6.62793L51.3105 6.64062L51.2734 11.748L52.916 11.7295L52.7559 18.1826L43.4502 18.2871L43.6104 11.834L47.4482 11.791L47.5752 6.77441L43.7363 6.81738L43.8965 0.407227L55.417 0.279297L57.0127 9.45508L59.3867 0.234375L70.8281 0.107422L70.6631 6.61035ZM98.7285 12.6768L102.994 14.2871L102.9 18.0459L87.6914 18.2158L87.7852 14.457L91.582 12.7559L91.7783 4.75391L98.9307 4.6748L98.7285 12.6768ZM10.0273 4.62891L8.10254 4.65137L7.86523 14.2188L11.7139 14.1748L11.7891 11.1094L21.333 11.002L21.1602 17.9033L0 18.1406L0.0957031 14.3047L2.49414 12.792L2.69629 4.71094L0.333984 4.7373L0.450195 0.108398L10.1416 0L10.0273 4.62891ZM29.2764 5.31348L29.2344 6.8916L37.1182 6.80469L37.1562 5.22656L29.2764 5.31348ZM98.9453 4.03223L91.8926 4.10938L91.9863 0.301758L99.04 0.222656L98.9453 4.03223Z" fill="#71717A"/>
</svg>
